<?xml version="1.0" encoding="utf-8"?>
<!-- Generator: $$$/GeneralStr/196=Adobe Illustrator 27.6.0, SVG Export Plug-In . SVG Version: 6.00 Build 0)  -->
<svg version="1.1" id="data-emploi" xmlns="http://www.w3.org/2000/svg" xmlns:xlink="http://www.w3.org/1999/xlink" x="0px"
	 y="0px" viewBox="0 0 166 72" style="enable-background:new 0 0 166 72;" xml:space="preserve">
<style type="text/css">
	.st0{fill:#283276;}
	.st1{fill:#FFFFFF;}
	.st2{fill:#FFE000;}
	.st3{fill:#F29FC5;}
</style>
<rect x="79.6" y="57.6" class="st0" width="75.6" height="10.8"/>
<path class="st1" d="M82.5,66.6V59h4.2v1h-3v2.1h2.5v1h-2.5v3.3H82.5z"/>
<path class="st1" d="M87.7,66.6v-5.4h1.1v0.6c0.4-0.4,0.9-0.7,1.5-0.7c0.2,0,0.3,0,0.5,0.1v1.1c-0.2,0-0.3-0.1-0.6-0.1
	c-0.7,0-1.1,0.4-1.4,0.8v3.6H87.7z"/>
<path class="st1" d="M93.3,66.8c-1.1,0-1.8-0.6-1.8-1.6c0-0.8,0.6-1.4,1.8-1.6l1.8-0.3V63c0-0.7-0.5-1.1-1.2-1.1
	c-0.6,0-1.1,0.3-1.4,0.7L91.7,62c0.5-0.6,1.3-1.1,2.2-1.1c1.5,0,2.3,0.9,2.3,2.1v3.6h-1.1V66C94.7,66.5,94,66.8,93.3,66.8z
	 M92.6,65.1c0,0.4,0.3,0.7,0.9,0.7c0.7,0,1.2-0.3,1.5-0.8v-0.9l-1.5,0.2C92.9,64.4,92.6,64.7,92.6,65.1z"/>
<path class="st1" d="M97.9,66.6v-5.4H99v0.5c0.4-0.4,1-0.7,1.7-0.7c1.2,0,2.1,0.8,2.1,2.4v3.3h-1.1v-3.2c0-0.9-0.5-1.4-1.3-1.4
	c-0.7,0-1.2,0.5-1.5,0.9v3.7H97.9z"/>
<path class="st1" d="M107.1,65.8c0.6,0,1.1-0.3,1.4-0.7l0.9,0.7c-0.5,0.7-1.3,1.1-2.3,1.1c-1.8,0-3-1.3-3-2.9s1.1-2.9,3-2.9
	c1,0,1.8,0.4,2.3,1.1l-0.9,0.7c-0.3-0.4-0.8-0.7-1.4-0.7c-1,0-1.8,0.8-1.8,1.9C105.3,65,106.1,65.8,107.1,65.8z"/>
<path class="st1" d="M115.3,65.7c-0.5,0.7-1.3,1.1-2.4,1.1c-1.9,0-3-1.3-3-2.9c0-1.6,1-2.9,2.8-2.9c1.5,0,2.5,1,2.5,2.4
	c0,0.2,0,0.5-0.1,0.7h-4c0.1,1.2,0.8,1.8,1.8,1.8c0.7,0,1.2-0.3,1.5-0.7L115.3,65.7z M112.7,61.9c-0.8,0-1.4,0.5-1.5,1.3h2.9
	C114.1,62.5,113.6,61.9,112.7,61.9z"/>
<path class="st1" d="M119,60.2V59h6.1v1.1h-2.4v6.4h-1.2v-6.4H119z"/>
<path class="st1" d="M125.6,66.6v-5.4h1.1v0.6c0.4-0.4,0.9-0.7,1.5-0.7c0.2,0,0.3,0,0.5,0.1v1.1c-0.2,0-0.3-0.1-0.6-0.1
	c-0.7,0-1.1,0.4-1.4,0.8v3.6H125.6z"/>
<path class="st1" d="M131.2,66.8c-1.1,0-1.8-0.6-1.8-1.6c0-0.8,0.6-1.4,1.8-1.6l1.8-0.3V63c0-0.7-0.5-1.1-1.2-1.1
	c-0.6,0-1.1,0.3-1.4,0.7l-0.8-0.6c0.5-0.6,1.3-1.1,2.2-1.1c1.5,0,2.3,0.9,2.3,2.1v3.6H133V66C132.6,66.5,131.9,66.8,131.2,66.8z
	 M130.5,65.1c0,0.4,0.3,0.7,0.9,0.7c0.7,0,1.2-0.3,1.5-0.8v-0.9l-1.5,0.2C130.8,64.4,130.5,64.7,130.5,65.1z"/>
<path class="st1" d="M135,61.2h1.2l1.6,4.2l1.6-4.2h1.2l-2.1,5.4H137L135,61.2z"/>
<path class="st1" d="M143,66.8c-1.1,0-1.8-0.6-1.8-1.6c0-0.8,0.6-1.4,1.8-1.6l1.8-0.3V63c0-0.7-0.5-1.1-1.2-1.1
	c-0.6,0-1.1,0.3-1.4,0.7l-0.8-0.6c0.5-0.6,1.3-1.1,2.2-1.1c1.5,0,2.3,0.9,2.3,2.1v3.6h-1.1V66C144.3,66.5,143.6,66.8,143,66.8z
	 M142.3,65.1c0,0.4,0.3,0.7,0.9,0.7c0.7,0,1.2-0.3,1.5-0.8v-0.9l-1.5,0.2C142.5,64.4,142.3,64.7,142.3,65.1z"/>
<path class="st1" d="M148.1,59.9c-0.4,0-0.8-0.3-0.8-0.8s0.3-0.8,0.8-0.8s0.8,0.3,0.8,0.8S148.5,59.9,148.1,59.9z M147.6,66.6v-5.4
	h1.1v5.4H147.6z"/>
<path class="st1" d="M150.5,66.6v-8.1h1.1v8.1H150.5z"/>
<path class="st0" d="M79.6,23.4V4.5h7.3c5.9,0,10,4.3,10,9.4s-4,9.4-10,9.4H79.6z M86.9,7.3h-4.3v13.2h4.3c3.9,0,6.7-2.9,6.7-6.6
	C93.7,10.3,90.8,7.3,86.9,7.3z"/>
<path class="st0" d="M103.8,23.8c-2.7,0-4.5-1.5-4.5-3.9c0-2.1,1.6-3.5,4.5-4l4.4-0.7v-0.7c0-1.7-1.2-2.7-3-2.7
	c-1.5,0-2.6,0.7-3.4,1.8l-2.1-1.6c1.2-1.6,3.2-2.6,5.6-2.6c3.7,0,5.7,2.2,5.7,5.2v9h-2.8v-1.5C107.2,23,105.5,23.8,103.8,23.8z
	 M102.1,19.8c0,1.1,0.8,1.8,2.2,1.8c1.7,0,3-0.8,3.8-2.1v-2.3l-3.7,0.6C102.8,18,102.1,18.7,102.1,19.8z"/>
<path class="st0" d="M116.1,18.7v-6.4h-2.6V9.8h2.6V6.4h2.8v3.4h4.5v2.5h-4.5v6.4c0,1.8,1,2.4,2.5,2.4c0.9,0,1.5-0.1,2-0.3v2.5
	c-0.6,0.3-1.4,0.4-2.5,0.4C117.8,23.7,116.1,22,116.1,18.7z"/>
<path class="st0" d="M130.5,23.8c-2.7,0-4.5-1.5-4.5-3.9c0-2.1,1.6-3.5,4.5-4l4.4-0.7v-0.7c0-1.7-1.2-2.7-3-2.7
	c-1.5,0-2.6,0.7-3.4,1.8l-2.1-1.6c1.2-1.6,3.2-2.6,5.6-2.6c3.7,0,5.7,2.2,5.7,5.2v9h-2.8v-1.5C133.9,23,132.2,23.8,130.5,23.8z
	 M128.8,19.8c0,1.1,0.8,1.8,2.2,1.8c1.7,0,3-0.8,3.8-2.1v-2.3l-3.7,0.6C129.5,18,128.8,18.7,128.8,19.8z"/>
<path class="st0" d="M79.6,50.4V31.5h10.5v2.6h-7.5v5.3H89v2.6h-6.4v5.7h7.5v2.6H79.6z"/>
<path class="st0" d="M94.3,50.4V36.8H97v1.3c1-1.1,2.2-1.8,4.1-1.8c1.9,0,3.4,0.8,4.3,2.5c1.1-1.3,2.4-2.5,4.8-2.5
	c2.8,0,5,1.9,5,5.7v8.5h-2.8v-8.3c0-2-1.1-3.2-2.9-3.2c-1.6,0-2.7,1-3.4,2.3c0,0.2,0,0.5,0,0.8v8.5h-2.8v-8.3c0-2-1.1-3.2-2.9-3.2
	c-1.7,0-2.8,1.2-3.4,2.3v9.2H94.3z"/>
<path class="st0" d="M119.5,57V36.8h2.8v1.4c1.2-1.2,2.6-1.9,4.6-1.9c4.3,0,6.9,3.4,6.9,7.3s-2.7,7.3-6.9,7.3c-2,0-3.4-0.7-4.6-1.9
	v8H119.5z M126.5,38.9c-1.8,0-3.3,0.8-4.2,2.3V46c1,1.5,2.5,2.3,4.2,2.3c2.6,0,4.4-2.1,4.4-4.7S129.1,38.9,126.5,38.9z"/>
<path class="st0" d="M137.2,50.4V30.1h2.8v20.3H137.2z"/>
<path class="st0" d="M150.9,36.3c4.4,0,7.4,3.3,7.4,7.3s-3,7.3-7.4,7.3c-4.4,0-7.4-3.3-7.4-7.3S146.5,36.3,150.9,36.3z M150.9,48.3
	c2.6,0,4.5-2.1,4.5-4.7c0-2.6-1.9-4.7-4.5-4.7c-2.6,0-4.5,2.1-4.5,4.7S148.3,48.3,150.9,48.3z"/>
<path class="st0" d="M163.2,33.8c-1,0-1.9-0.9-1.9-1.9c0-1,0.9-1.9,1.9-1.9s1.9,0.9,1.9,1.9C165.1,32.9,164.2,33.8,163.2,33.8z
	 M161.8,50.4V36.8h2.8v13.6H161.8z"/>
<path class="st0" d="M70.9,64c-3.5,7.1-12.2,10-19.3,6.5c-7.1-3.5-10-12.2-6.5-19.3c3.5-7.1,12.2-10,19.3-6.5
	C71.5,48.2,74.4,56.9,70.9,64z"/>
<path class="st2" d="M13.5,32.9c-2.2,3.3-6.7,4.1-10,1.9c-3.3-2.2-4.1-6.7-1.9-10c2.3-3.3,6.7-4.1,10-1.9
	C14.9,25.1,15.7,29.6,13.5,32.9"/>
<path class="st3" d="M61.6,36c0-13.9-11.3-25.2-25.2-25.2S11.2,22.1,11.2,36c0,13.9,11.3,25.2,25.2,25.2S61.6,49.9,61.6,36z"/>
<path class="st1" d="M52.7,46.1h-3.6V22.7c0-0.9-0.7-1.4-1.4-1.4h-3.6c-0.9,0-1.4,0.7-1.4,1.4v23.4h-3.1V27.2c0-0.9-0.7-1.4-1.4-1.4
	h-3.6c-0.9,0-1.4,0.7-1.4,1.4v18.9h-3.1V31.7c0-0.9-0.7-1.4-1.4-1.4H25c-0.9,0-1.4,0.7-1.4,1.4v14.4H20c-0.5,0-0.9,0.4-0.9,0.9
	s0.4,0.9,0.9,0.9h32.8c0.5,0,0.9-0.4,0.9-0.9S53.3,46.1,52.7,46.1z"/>
</svg>
